<svg width="280" height="65" viewBox="0 0 280 65" fill="none" xmlns="http://www.w3.org/2000/svg">
<path d="M170.375 53.625H181.625V65H170.375V53.625Z" fill="#676E74"/>
<path d="M176 53.625H181.625V65H176V53.625Z" fill="#333637"/>
<path d="M166.625 48H185.375V57.375H166.625V48Z" fill="#4C545A"/>
<path d="M176 48H185.375V57.375H176V48Z" fill="#52585C"/>
<path d="M189.012 37.7251C186.688 39.6377 185.375 42.3374 185.375 45.1499V48H166.625V45.1499C166.625 42.2998 165.387 39.6377 163.325 38.0249C158.263 34.0874 155.375 28.1626 155.375 21.75C155.375 15.5249 158.15 9.67529 162.988 5.7373C166.7 2.7373 171.237 1 176 1C177.462 1 178.962 1.1499 180.425 1.4502C188.525 3.1377 194.9 9.8999 196.325 18.1128C197.6 25.6128 194.9 32.9624 189.012 37.7251Z" fill="#FFDA2D"/>
<path d="M189.012 37.7251C186.688 39.6377 185.375 42.3374 185.375 45.1499V48H176V1C177.462 1 178.962 1.1499 180.425 1.4502C188.525 3.1377 194.9 9.8999 196.325 18.1128C197.6 25.6128 194.9 32.9624 189.012 37.7251Z" fill="#FDBF00"/>
<path d="M162.875 46.125H189.125V49.875H162.875V46.125Z" fill="#676E74"/>
<path d="M183.956 11.1426L186.607 13.7939L182.628 17.7725L179.977 15.1211L183.956 11.1426Z" fill="#FF9100"/>
<path d="M169.372 25.7266L172.023 28.3779L168.044 32.3569L165.393 29.7056L169.372 25.7266Z" fill="#FDBF00"/>
<path d="M174.125 29.25H177.875V34.875H174.125V29.25Z" fill="#FDBF00"/>
<path d="M182.628 25.7266L186.607 29.7056L183.956 32.3569L179.977 28.3779L182.628 25.7266Z" fill="#FF9100"/>
<path d="M183.5 19.875H189.125V23.625H183.5V19.875Z" fill="#FF9100"/>
<path d="M168.044 11.1426L172.023 15.1216L169.372 17.7725L165.393 13.7939L168.044 11.1426Z" fill="#FDBF00"/>
<path d="M162.875 19.875H168.5V23.625H162.875V19.875Z" fill="#FDBF00"/>
<path d="M174.125 8.625H177.875V14.25H174.125V8.625Z" fill="#FDBF00"/>
<path d="M144 19.875H151.625V23.625H144V19.875Z" fill="#FFDA2D"/>
<path d="M150.585 15.8101L144.835 12.0601L146.915 8.93994L152.665 12.6899L150.585 15.8101Z" fill="#FFDA2D"/>
<path d="M146.915 34.5601L144.835 31.4399L150.585 27.6899L152.665 30.8101L146.915 34.5601Z" fill="#FFDA2D"/>
<path d="M200.375 19.875H208V23.625H200.375V19.875Z" fill="#FDBF00"/>
<path d="M205.085 34.5601L199.335 30.8101L201.415 27.6899L207.165 31.4399L205.085 34.5601Z" fill="#FDBF00"/>
<path d="M201.415 15.8101L199.335 12.6899L205.085 8.93994L207.165 12.0601L201.415 15.8101Z" fill="#FDBF00"/>
<path d="M176 8.625H177.875V14.25H176V8.625Z" fill="#FF9100"/>
<path d="M176 29.25H177.875V34.875H176V29.25Z" fill="#FF9100"/>
<path d="M176 46.125H189.125V49.875H176V46.125Z" fill="#333637"/>
<path d="M176 12.375C170.825 12.375 166.625 16.5752 166.625 21.75C166.625 26.9248 170.825 31.125 176 31.125C181.175 31.125 185.375 26.9248 185.375 21.75C185.375 16.5752 181.175 12.375 176 12.375Z" fill="#FDBF00"/>
<path d="M176 31.125V12.375C181.175 12.375 185.375 16.5752 185.375 21.75C185.375 26.9248 181.175 31.125 176 31.125Z" fill="#FF9100"/>
<path d="M174.125 19.875H177.875V23.625H174.125V19.875Z" fill="#FFDA2D"/>
<path d="M176 19.875H177.875V23.625H176V19.875Z" fill="#FDBF00"/>
<path d="M136 15.4541V57.2424H72V15.4541L75.75 11.6666H132.25L136 15.4541Z" fill="#EFEFF4"/>
<path d="M136 15.4541V57.2424H104V11.6666H132.25L136 15.4541Z" fill="#DADAE5"/>
<path d="M72 1H136V16.5152H72V1Z" fill="#474F54"/>
<path d="M104 1H136V16.5152H104V1Z" fill="#32393F"/>
<path d="M79.7576 6.81824H83.4424V10.697H79.7576V6.81824Z" fill="#FF637B"/>
<path d="M87.1273 6.81824H90.8121V10.697H87.1273V6.81824Z" fill="#FF637B"/>
<path d="M94.4969 6.81824H98.1818V10.697H94.4969V6.81824Z" fill="#FF637B"/>
<path d="M117.576 43.2453V65H106.355V61.2898H102.615V65H91.394V43.2453L102.764 33.9697H105.869L117.576 43.2453Z" fill="#FF637B"/>
<path d="M83.6364 23.303H125.333V27.1818H83.6364V23.303Z" fill="#DADAE5"/>
<path d="M104 23.303H124.364V27.1818H104V23.303Z" fill="#C9C9D3"/>
<path d="M117.576 43.2453V65H105.939V61.2898H104V33.9697H105.435L117.576 43.2453Z" fill="#E63950"/>
<path d="M102.061 46.5758H105.939V50.4546H102.061V46.5758Z" fill="#EFEFF4"/>
<path d="M104 46.5758H105.939V50.4546H104V46.5758Z" fill="#DADAE5"/>
<path d="M122.424 46.7792L119.972 49.4848L104.485 35.9585L88.9973 49.4848L86.5454 46.7792L104.485 31.0605L122.424 46.7792Z" fill="#676E74"/>
<path d="M104 31.0605L122.424 46.7792L119.906 49.4848L104 35.9585V31.0605Z" fill="#474F54"/>
<path d="M56.8418 7.15815C47.3159 -2.40484 31.9399 -2.36724 22.4141 7.15815C14.3887 15.184 12.9634 27.5971 18.8887 37.1606L16.376 39.7104L15.02 45.8549L19.2344 50.0693L24.3267 47.6611L26.8394 45.1108C36.4028 51.0366 48.8164 49.6489 56.8418 41.5859C66.4048 32.06 66.3672 16.684 56.8418 7.15815Z" fill="#676E74"/>
<path d="M24.3267 47.6611L26.8394 45.1108C36.4028 51.0366 48.8159 49.6489 56.8418 41.5859C66.4048 32.0601 66.3672 16.6841 56.8418 7.1582L16.5825 47.4175L19.2339 50.0693L24.3267 47.6611Z" fill="#474F54"/>
<path d="M54.2129 9.78711C50.4805 6.0542 45.3237 3.74561 39.6279 3.74561C28.2363 3.74561 19.0015 12.9805 19.0015 24.3721C19.0015 30.0679 21.3101 35.2246 25.0425 38.9575C28.7754 42.6899 33.9321 44.9985 39.6279 44.9985C51.0195 44.9985 60.2544 35.7637 60.2544 24.3721C60.2544 18.6763 57.9458 13.5195 54.2129 9.78711Z" fill="#64E1DC"/>
<path d="M60.2544 24.3721C60.2544 18.6763 57.9458 13.5195 54.2129 9.78711L25.0425 38.9575C28.7754 42.6899 33.9321 44.9985 39.6279 44.9985C51.0195 44.9985 60.2544 35.7637 60.2544 24.3721Z" fill="#00C8C8"/>
<path d="M56.2388 23.4106C56.0547 23.103 53.2588 18.4961 48.958 15.042C46.3276 12.9287 43.1357 11.2461 39.6279 11.2461C30.3857 11.2461 23.314 22.9146 23.0171 23.4106L22.4419 24.3721L23.0171 25.3335C23.2012 25.6416 25.9966 30.2485 30.2974 33.7026C32.9282 35.8154 36.1201 37.498 39.6279 37.498C48.8701 37.498 55.9419 25.8296 56.2388 25.3335L56.8135 24.3721L56.2388 23.4106Z" fill="#EFEFF4"/>
<path d="M56.2388 25.3335L56.8135 24.3721L56.2388 23.4106C56.0547 23.103 53.2588 18.4961 48.958 15.042L30.2974 33.7026C32.9282 35.8154 36.1201 37.498 39.6279 37.498C48.8701 37.498 55.9419 25.8296 56.2388 25.3335Z" fill="#DADAE5"/>
<path d="M43.604 20.3965C42.5854 19.3774 41.1787 18.7466 39.6279 18.7466C36.5259 18.7466 34.0024 21.27 34.0024 24.3721C34.0024 25.9233 34.6333 27.3296 35.6519 28.3481C36.6709 29.3667 38.0767 29.9976 39.6279 29.9976C42.73 29.9976 45.2534 27.4741 45.2534 24.3721C45.2534 22.8213 44.6226 21.415 43.604 20.3965Z" fill="#64E1DC"/>
<path d="M45.2534 24.3721C45.2534 22.8213 44.6226 21.415 43.604 20.3965L35.6519 28.3481C36.6704 29.3667 38.0767 29.9976 39.6279 29.9976C42.73 29.9976 45.2534 27.4741 45.2534 24.3721Z" fill="#00C8C8"/>
<path d="M40.9536 23.0464C40.6143 22.707 40.1455 22.4971 39.6279 22.4971C38.5933 22.4971 37.7529 23.3374 37.7529 24.3721C37.7529 24.8896 37.9629 25.3584 38.3022 25.6978C38.6416 26.0371 39.1104 26.2471 39.6279 26.2471C40.6626 26.2471 41.5029 25.4067 41.5029 24.3721C41.5029 23.855 41.293 23.3862 40.9536 23.0464Z" fill="#676E74"/>
<path d="M41.5029 24.3721C41.5029 23.855 41.293 23.3862 40.9536 23.0464L38.3022 25.6978C38.6416 26.0371 39.1104 26.2471 39.6279 26.2471C40.6626 26.2471 41.5029 25.4067 41.5029 24.3721Z" fill="#474F54"/>
<path d="M20.333 43.667L16.376 39.7104L0 56.0493L3.9751 60.0249L7.95068 64L24.3267 47.6611L20.333 43.667Z" fill="#575C60"/>
<path d="M24.3267 47.6611L20.333 43.667L3.9751 60.0249L7.95068 64L24.3267 47.6611Z" fill="#333637"/>
<path d="M280 1V42.25L276.25 46.125H219.75L216 42.25V1H280Z" fill="#474F54"/>
<path d="M280 1V42.25L276.25 46.125H248V1H280Z" fill="#32393F"/>
<path d="M238.625 51.875H257.375V63.125H238.625V51.875Z" fill="#DADAE5"/>
<path d="M248 51.875H257.375V63.125H248V51.875Z" fill="#C9C9D3"/>
<path d="M216 42.25H280V53.75H216V42.25Z" fill="#EFEFF4"/>
<path d="M248 42.25H280V53.75H248V42.25Z" fill="#DADAE5"/>
<path d="M231.125 61.25H264.875V65H231.125V61.25Z" fill="#EFEFF4"/>
<path d="M248 61.25H264.875V65H248V61.25Z" fill="#DADAE5"/>
<path fill-rule="evenodd" clip-rule="evenodd" d="M223.625 21.625C223.625 14.3887 229.514 8.5 236.75 8.5C243.986 8.5 249.875 14.3887 249.875 21.625C249.875 28.8613 243.986 34.75 236.75 34.75C229.514 34.75 223.625 28.8613 223.625 21.625ZM231.125 21.625C231.125 24.7266 233.648 27.25 236.75 27.25C239.852 27.25 242.375 24.7266 242.375 21.625C242.375 18.5234 239.852 16 236.75 16C233.648 16 231.125 18.5234 231.125 21.625Z" fill="#549EF2"/>
<path d="M261.125 8.5H272.5V12.25H261.125V8.5Z" fill="#377FD2"/>
<path d="M253.625 8.5H257.375V12.25H253.625V8.5Z" fill="#377FD2"/>
<path d="M261.125 23.5H272.5V27.25H261.125V23.5Z" fill="#377FD2"/>
<path d="M253.625 23.5H257.375V27.25H253.625V23.5Z" fill="#377FD2"/>
<path d="M253.625 16H272.5V19.75H253.625V16Z" fill="#377FD2"/>
<path d="M253.625 31H272.5V34.75H253.625V31Z" fill="#377FD2"/>
</svg>
