<svg width="116" height="20" viewBox="0 0 116 20" fill="none" xmlns="http://www.w3.org/2000/svg">
<path fill-rule="evenodd" clip-rule="evenodd" d="M108 6L112 10L116 6H108Z" fill="#DC414C"/>
<path fill-rule="evenodd" clip-rule="evenodd" d="M82 0C76.4775 0 72 4.4775 72 10C72 15.5225 76.4775 20 82 20C87.5225 20 92 15.5225 92 10C92 4.4775 87.5225 0 82 0ZM85.7008 14.0767C83.9492 14.1967 80.0475 14.1967 78.2983 14.0767C76.4017 13.9467 76.1808 13.0183 76.1667 10C76.1808 6.97583 76.4042 6.05333 78.2983 5.92333C80.0475 5.80333 83.95 5.80333 85.7008 5.92333C87.5983 6.05333 87.8183 6.98167 87.8333 10C87.8183 13.0242 87.5958 13.9467 85.7008 14.0767ZM84.4308 9.99667L80.3333 8.04833V11.9517L84.4308 9.99667Z" fill="#C4032B"/>
<path fill-rule="evenodd" clip-rule="evenodd" d="M58 0C55.2842 0 54.9442 0.0116667 53.8775 0.06C50.2458 0.226667 48.2275 2.24167 48.0608 5.87667C48.0117 6.94417 48 7.28417 48 10C48 12.7158 48.0117 13.0567 48.06 14.1233C48.2267 17.755 50.2417 19.7733 53.8767 19.94C54.9442 19.9883 55.2842 20 58 20C60.7158 20 61.0567 19.9883 62.1233 19.94C65.7517 19.7733 67.775 17.7583 67.9392 14.1233C67.9883 13.0567 68 12.7158 68 10C68 7.28417 67.9883 6.94417 67.94 5.8775C67.7767 2.24917 65.7592 0.2275 62.1242 0.0608333C61.0567 0.0116667 60.7158 0 58 0ZM58 1.8025C60.67 1.8025 60.9867 1.8125 62.0417 1.86083C64.7517 1.98417 66.0175 3.27 66.1408 5.96C66.1892 7.01417 66.1983 7.33083 66.1983 10.0008C66.1983 12.6717 66.1883 12.9875 66.1408 14.0417C66.0167 16.7292 64.7542 18.0175 62.0417 18.1408C60.9867 18.1892 60.6717 18.1992 58 18.1992C55.33 18.1992 55.0133 18.1892 53.9592 18.1408C51.2425 18.0167 49.9833 16.725 49.86 14.0408C49.8117 12.9867 49.8017 12.6708 49.8017 10C49.8017 7.33 49.8125 7.01417 49.86 5.95917C49.9842 3.27 51.2467 1.98333 53.9592 1.86C55.0142 1.8125 55.33 1.8025 58 1.8025ZM52.865 10C52.865 7.16417 55.1642 4.865 58 4.865C60.8358 4.865 63.135 7.16417 63.135 10C63.135 12.8367 60.8358 15.1358 58 15.1358C55.1642 15.1358 52.865 12.8358 52.865 10ZM58 13.3333C56.1592 13.3333 54.6667 11.8417 54.6667 10C54.6667 8.15917 56.1592 6.66667 58 6.66667C59.8408 6.66667 61.3333 8.15917 61.3333 10C61.3333 11.8417 59.8408 13.3333 58 13.3333ZM62.1375 4.6625C62.1375 4 62.675 3.4625 63.3383 3.4625C64.0008 3.4625 64.5375 4 64.5375 4.6625C64.5375 5.325 64.0008 5.8625 63.3383 5.8625C62.675 5.8625 62.1375 5.325 62.1375 4.6625Z" fill="url(#paint0_linear_21_21)"/>
<path d="M44 3.92417C43.2642 4.25083 42.4733 4.47083 41.6433 4.57C42.4908 4.0625 43.1417 3.25833 43.4475 2.3C42.655 2.77 41.7767 3.11167 40.8417 3.29583C40.0942 2.49833 39.0267 2 37.8467 2C35.1975 2 33.2508 4.47167 33.8492 7.0375C30.44 6.86667 27.4167 5.23333 25.3925 2.75083C24.3175 4.595 24.835 7.0075 26.6617 8.22917C25.99 8.2075 25.3567 8.02333 24.8042 7.71583C24.7592 9.61667 26.1217 11.395 28.095 11.7908C27.5175 11.9475 26.885 11.9842 26.2417 11.8608C26.7633 13.4908 28.2783 14.6767 30.075 14.71C28.35 16.0625 26.1767 16.6667 24 16.41C25.8158 17.5742 27.9733 18.2533 30.29 18.2533C37.9083 18.2533 42.2125 11.8192 41.9525 6.04833C42.7542 5.46917 43.45 4.74667 44 3.92417Z" fill="#1DA1F2"/>
<path fill-rule="evenodd" clip-rule="evenodd" d="M96 10L100 6L104 10H96Z" fill="#1EB589"/>
<path d="M18.8958 0H1.10417C0.494167 0 0 0.494167 0 1.10417V18.8967C0 19.5058 0.494167 20 1.10417 20H10.6833V12.255H8.07667V9.23667H10.6833V7.01083C10.6833 4.4275 12.2608 3.02083 14.5658 3.02083C15.67 3.02083 16.6183 3.10333 16.895 3.14V5.84L15.2967 5.84083C14.0433 5.84083 13.8008 6.43667 13.8008 7.31V9.2375H16.79L16.4008 12.2558H13.8008V20H18.8975C19.5058 20 20 19.5058 20 18.8958V1.10417C20 0.494167 19.5058 0 18.8958 0Z" fill="#178FF5"/>
<defs>
<linearGradient id="paint0_linear_21_21" x1="58" y1="-10" x2="38" y2="10" gradientUnits="userSpaceOnUse">
<stop stop-color="#DF4896"/>
<stop offset="0.509134" stop-color="#EE877E"/>
<stop offset="1" stop-color="#FDC366"/>
</linearGradient>
</defs>
</svg>
